<?xml version="1.0" encoding="UTF-8" standalone="no"?>
<svg
   xmlns:dc="http://purl.org/dc/elements/1.1/"
   xmlns:cc="http://creativecommons.org/ns#"
   xmlns:rdf="http://www.w3.org/1999/02/22-rdf-syntax-ns#"
   xmlns:svg="http://www.w3.org/2000/svg"
   xmlns="http://www.w3.org/2000/svg"
   xmlns:sodipodi="http://sodipodi.sourceforge.net/DTD/sodipodi-0.dtd"
   xmlns:inkscape="http://www.inkscape.org/namespaces/inkscape"
   height="61.723591"
   viewBox="0 0 2546.2013 61.723592"
   width="2546.2014"
   version="1.1"
   id="svg164"
   sodipodi:docname="navigator1.svg"
   inkscape:version="1.0.2 (e86c8708, 2021-01-15)">
  <metadata
     id="metadata170">
    <rdf:RDF>
      <cc:Work
         rdf:about="">
        <dc:format>image/svg+xml</dc:format>
        <dc:type
           rdf:resource="http://purl.org/dc/dcmitype/StillImage" />
        <dc:title></dc:title>
      </cc:Work>
    </rdf:RDF>
  </metadata>
  <defs
     id="defs168" />
  <sodipodi:namedview
     pagecolor="#ffffff"
     bordercolor="#666666"
     borderopacity="1"
     objecttolerance="10"
     gridtolerance="10"
     guidetolerance="10"
     inkscape:pageopacity="0"
     inkscape:pageshadow="2"
     inkscape:window-width="2377"
     inkscape:window-height="1390"
     id="namedview166"
     showgrid="false"
     inkscape:zoom="1.1287902"
     inkscape:cx="2340.7349"
     inkscape:cy="-32.378374"
     inkscape:window-x="2140"
     inkscape:window-y="23"
     inkscape:window-maximized="0"
     inkscape:current-layer="svg164"
     inkscape:document-rotation="0" />
  <path
     d="M 2543.1447,61.72359 H 0 V 36.9328 h 2543.1447 z"
     fill="#e6e6e6"
     id="path58"
     sodipodi:nodetypes="ccccc"
     style="stroke-width:0.569529" />
  <g
     fill="#ffffff"
     id="g108"
     transform="matrix(0.56952875,0,0,0.56952875,-28.942381,-218.27448)">
    <path
       d="m 82.70435,468.77863 h 33.73467 v 2.17643 H 82.70435 Z"
       id="path92" />
    <path
       d="m 178.46729,468.77863 h 33.73467 v 2.17643 h -33.73467 z"
       id="path94" />
    <path
       d="m 274.23022,468.77863 h 33.73467 v 2.17643 h -33.73467 z"
       id="path96" />
    <path
       d="m 369.99316,468.77863 h 33.73467 v 2.17643 h -33.73467 z"
       id="path98" />
    <path
       d="m 465.75609,468.77863 h 33.73467 v 2.17643 h -33.73467 z"
       id="path100" />
    <path
       d="m 561.51903,468.77863 h 33.73467 v 2.17643 h -33.73467 z"
       id="path102" />
    <path
       d="m 657.28196,468.77863 h 33.73467 v 2.17643 h -33.73467 z"
       id="path104" />
    <path
       d="m 753.04489,468.77863 h 33.73467 v 2.17643 h -33.73467 z"
       id="path106" />
  </g>
  <path
     d="m 411.64747,44.40518 -11.07884,-0.006 0.001,-1.75853 11.07883,0.006 z"
     fill="#3f3d56"
     id="path130"
     style="stroke-width:0.569529" />
  <path
     d="m 320.46759,43.0376 2.28583,0.52878 86.87213,0.0464 0.78117,-1.82006 a 18.371289,18.371289 0 0 0 1.35063,-9.93368 c -0.37415,-2.51367 -1.31172,-5.01136 -3.44117,-6.0962 L 404.4611,0.086 356.39922,0 337.80425,14.99801 c 0,0 -8.77152,-0.15768 -13.53684,5.77487 a 13.924744,13.924744 0 0 0 -2.91274,7.66922 l -0.18807,3.08615 z"
     fill="#6c63ff"
     id="path132"
     style="stroke-width:0.569529" />
  <circle
     cx="339.54803"
     cy="42.608131"
     fill="#3f3d56"
     id="circle134"
     r="10.727126"
     style="stroke-width:0.569529" />
  <circle
     cx="339.54803"
     cy="42.608131"
     fill="#cccccc"
     id="circle136"
     r="5.6458583"
     style="stroke-width:0.569529" />
  <circle
     cx="392.48026"
     cy="42.636421"
     fill="#3f3d56"
     id="circle138"
     r="10.727126"
     style="stroke-width:0.569529" />
  <circle
     cx="392.48026"
     cy="42.636421"
     fill="#cccccc"
     id="circle140"
     r="5.6458583"
     style="stroke-width:0.569529" />
  <path
     d="m 345.19245,13.24522 25.94944,0.0108 h 3.16772 l 5.34787,0.004 v -0.39013 l 0.004,-4.70316 0.004,-5.28068 h -3.55841 l -3.16772,-0.003 -5.611,-0.004 h -3.16772 l -6.47782,-0.004 z"
     fill="#ffffff"
     id="path142"
     style="stroke-width:0.569529" />
  <path
     d="m 383.87997,13.26402 13.71425,0.007 0.003,-2.69102 V 5.87683 l 0.004,-2.97977 h -2.00816 l -3.16771,-0.004 -8.5418,-0.003 z"
     fill="#ffffff"
     id="path144"
     style="stroke-width:0.569529" />
  <path
     d="m 379.65266,24.34066 -1.75854,-0.001 0.002,-3.34123 1.75854,0.001 z"
     fill="#3f3d56"
     id="path146"
     style="stroke-width:0.569529" />
  <path
     d="m 352.22363,16.23671 -0.001,1.75854 -3.34124,-0.002 10e-4,-1.75854 z"
     fill="#3f3d56"
     id="path148"
     style="stroke-width:0.569529" />
  <path
     d="m 350.9923,17.00979 -0.19345,-1.1e-4 a 3.675357,3.675357 0 0 1 -3.67339,-3.67732 3.675357,3.675357 0 0 1 3.67732,-3.67339 l 0.19344,10e-5 z"
     fill="#3f3d56"
     id="path150"
     style="stroke-width:0.569529" />
  <path
     d="m 321.1666,31.52827 a 5.6808955,5.6808955 0 0 0 3.10081,-10.75537 13.924744,13.924744 0 0 0 -2.91274,7.66922 z"
     fill="#3f3d56"
     id="path152"
     style="stroke-width:0.569529" />
  <path
     d="m 372.93932,2.88265 6.71816,9.98725 0.004,-4.70316 -3.55443,-5.28068 z"
     fill="#f2f2f2"
     id="path154"
     style="stroke-width:0.569529" />
  <path
     d="m 392.42575,2.89347 5.17189,7.68693 V 5.87723 l -2.00418,-2.97977 z"
     fill="#f2f2f2"
     id="path156"
     style="stroke-width:0.569529" />
  <path
     d="m 364.1606,2.87866 6.98129,10.37738 h 3.16772 L 367.32832,2.87866 Z"
     fill="#f2f2f2"
     id="path158"
     style="stroke-width:0.569529" />
  <path
     d="m 454.47808,48.70843 h 19.21286 v 1.23954 h -19.21286 z"
     id="path96-2"
     style="fill:#ffffff;stroke-width:0.569529" />
  <path
     d="m 509.01783,48.70843 h 19.21286 v 1.23954 h -19.21286 z"
     id="path98-4"
     style="fill:#ffffff;stroke-width:0.569529" />
  <path
     d="m 563.55757,48.70843 h 19.21289 v 1.23954 h -19.21289 z"
     id="path100-8"
     style="fill:#ffffff;stroke-width:0.569529" />
  <path
     d="m 618.0973,48.70843 h 19.21288 v 1.23954 H 618.0973 Z"
     id="path102-3"
     style="fill:#ffffff;stroke-width:0.569529" />
  <path
     d="m 672.63708,48.70843 h 19.21288 v 1.23954 h -19.21288 z"
     id="path104-9"
     style="fill:#ffffff;stroke-width:0.569529" />
  <path
     d="m 727.17681,48.70843 h 19.21288 v 1.23954 h -19.21288 z"
     id="path106-0"
     style="fill:#ffffff;stroke-width:0.569529" />
  <path
     d="m 781.71659,48.70843 h 19.21282 v 1.23954 h -19.21282 z"
     id="path98-4-9"
     style="fill:#ffffff;stroke-width:0.569529" />
  <path
     d="m 836.25631,48.70843 h 19.21288 v 1.23954 h -19.21288 z"
     id="path100-8-9"
     style="fill:#ffffff;stroke-width:0.569529" />
  <path
     d="m 890.79604,48.70843 h 19.21288 v 1.23954 h -19.21288 z"
     id="path102-3-1"
     style="fill:#ffffff;stroke-width:0.569529" />
  <path
     d="m 945.33582,48.70843 h 19.21288 v 1.23954 h -19.21288 z"
     id="path104-9-7"
     style="fill:#ffffff;stroke-width:0.569529" />
  <path
     d="m 999.87552,48.70843 h 19.21288 v 1.23954 h -19.21288 z"
     id="path106-0-2"
     style="fill:#ffffff;stroke-width:0.569529" />
  <path
     d="m 1054.4152,48.70843 h 19.2129 v 1.23954 h -19.2129 z"
     id="path102-3-5"
     style="fill:#ffffff;stroke-width:0.569529" />
  <path
     d="m 1108.955,48.70843 h 19.2129 v 1.23954 h -19.2129 z"
     id="path104-9-8"
     style="fill:#ffffff;stroke-width:0.569529" />
  <path
     d="m 1163.4948,48.70843 h 19.2128 v 1.23954 h -19.2128 z"
     id="path106-0-1"
     style="fill:#ffffff;stroke-width:0.569529" />
  <path
     d="m 1218.0345,48.70843 h 19.2129 v 1.23954 h -19.2129 z"
     id="path98-4-9-4"
     style="fill:#ffffff;stroke-width:0.569529" />
  <path
     d="m 1272.5743,48.70843 h 19.2128 v 1.23954 h -19.2128 z"
     id="path100-8-9-7"
     style="fill:#ffffff;stroke-width:0.569529" />
  <path
     d="m 1327.114,48.70843 h 19.2129 v 1.23954 h -19.2129 z"
     id="path102-3-1-1"
     style="fill:#ffffff;stroke-width:0.569529" />
  <path
     d="m 1381.6538,48.70843 h 19.2129 v 1.23954 h -19.2129 z"
     id="path104-9-7-3"
     style="fill:#ffffff;stroke-width:0.569529" />
  <path
     d="m 1436.1935,48.70843 h 19.2129 v 1.23954 h -19.2129 z"
     id="path106-0-2-8"
     style="fill:#ffffff;stroke-width:0.569529" />
  <path
     d="m 1490.7332,49.94797 h 19.2129 v -1.23954 h -19.2129 z"
     id="path102-3-1-1-6"
     style="fill:#ffffff;stroke-width:0.569529" />
  <path
     d="m 1545.273,49.94797 h 19.2129 v -1.23954 h -19.2129 z"
     id="path104-9-7-3-0"
     style="fill:#ffffff;stroke-width:0.569529" />
  <path
     d="m 1545.2731,48.70843 h 19.2128 v 1.23954 h -19.2128 z"
     id="path98-4-9-8"
     style="fill:#ffffff;stroke-width:0.569529" />
  <path
     d="m 1599.8128,48.70843 h 19.2129 v 1.23954 h -19.2129 z"
     id="path100-8-9-0"
     style="fill:#ffffff;stroke-width:0.569529" />
  <path
     d="m 1654.3525,48.70843 h 19.2129 v 1.23954 h -19.2129 z"
     id="path102-3-1-2"
     style="fill:#ffffff;stroke-width:0.569529" />
  <path
     d="m 1708.8923,48.70843 h 19.2129 v 1.23954 h -19.2129 z"
     id="path104-9-7-4"
     style="fill:#ffffff;stroke-width:0.569529" />
  <path
     d="m 1763.432,48.70843 h 19.2129 v 1.23954 h -19.2129 z"
     id="path106-0-2-83"
     style="fill:#ffffff;stroke-width:0.569529" />
  <path
     d="m 1817.9717,48.70843 h 19.2129 v 1.23954 h -19.2129 z"
     id="path102-3-5-9"
     style="fill:#ffffff;stroke-width:0.569529" />
  <path
     d="m 1872.5115,48.70843 h 19.2129 v 1.23954 h -19.2129 z"
     id="path104-9-8-0"
     style="fill:#ffffff;stroke-width:0.569529" />
  <path
     d="m 1927.0513,48.70843 h 19.2128 v 1.23954 h -19.2128 z"
     id="path106-0-1-5"
     style="fill:#ffffff;stroke-width:0.569529" />
  <path
     d="m 1981.591,48.70843 h 19.2129 v 1.23954 h -19.2129 z"
     id="path98-4-9-4-2"
     style="fill:#ffffff;stroke-width:0.569529" />
  <path
     d="m 2036.1308,48.70843 h 19.2128 v 1.23954 h -19.2128 z"
     id="path100-8-9-7-2"
     style="fill:#ffffff;stroke-width:0.569529" />
  <path
     d="m 2090.6705,48.70843 h 19.2129 v 1.23954 h -19.2129 z"
     id="path102-3-1-1-7"
     style="fill:#ffffff;stroke-width:0.569529" />
  <path
     d="m 2145.2103,48.70843 h 19.2129 v 1.23954 h -19.2129 z"
     id="path104-9-7-3-3"
     style="fill:#ffffff;stroke-width:0.569529" />
  <path
     d="m 2199.75,48.70843 h 19.2129 v 1.23954 H 2199.75 Z"
     id="path106-0-2-8-7"
     style="fill:#ffffff;stroke-width:0.569529" />
  <path
     d="m 2254.2897,49.94797 h 19.2129 v -1.23954 h -19.2129 z"
     id="path102-3-1-1-6-9"
     style="fill:#ffffff;stroke-width:0.569529" />
  <path
     d="m 2308.8295,49.94797 h 19.2129 v -1.23954 h -19.2129 z"
     id="path104-9-7-3-0-0"
     style="fill:#ffffff;stroke-width:0.569529" />
  <path
     d="m 2308.8296,48.70843 h 19.2128 v 1.23954 h -19.2128 z"
     id="path98-4-9-8-2"
     style="fill:#ffffff;stroke-width:0.569529" />
  <path
     d="m 2363.3693,48.70843 h 19.2129 v 1.23954 h -19.2129 z"
     id="path100-8-9-0-3"
     style="fill:#ffffff;stroke-width:0.569529" />
  <path
     d="m 2417.909,48.70843 h 19.2129 v 1.23954 h -19.2129 z"
     id="path102-3-1-2-9"
     style="fill:#ffffff;stroke-width:0.569529" />
  <path
     d="m 2472.4488,48.70843 h 19.2129 v 1.23954 h -19.2129 z"
     id="path104-9-7-4-9"
     style="fill:#ffffff;stroke-width:0.569529" />
  <path
     d="m 2526.9885,48.70843 h 19.2129 v 1.23954 h -19.2129 z"
     id="path106-0-2-83-7"
     style="fill:#ffffff;stroke-width:0.569529" />
</svg>
