<?xml version="1.0" standalone="no"?>
<!DOCTYPE svg PUBLIC "-//W3C//DTD SVG 20010904//EN"
 "http://www.w3.org/TR/2001/REC-SVG-20010904/DTD/svg10.dtd">
<svg version="1.0" xmlns="http://www.w3.org/2000/svg"
 width="216.000000pt" height="216.000000pt" viewBox="0 0 216.000000 216.000000"
 preserveAspectRatio="xMidYMid meet">
<metadata>
Created by potrace 1.11, written by Peter Selinger 2001-2013
</metadata>
<g transform="translate(0.000000,216.000000) scale(0.100000,-0.100000)"
fill="#000000" stroke="none">
<path d="M340 2018 c-25 -13 -54 -37 -66 -54 -11 -18 -78 -198 -148 -400
l-127 -369 3 -502 3 -503 33 -32 32 -33 110 0 110 0 32 33 c31 31 33 37 37
117 l3 85 718 0 718 0 3 -85 c4 -80 6 -86 37 -117 l32 -33 110 0 110 0 32 33
33 32 3 503 3 502 -128 369 c-70 203 -136 383 -148 400 -11 17 -40 41 -65 54
l-44 22 -696 0 -696 0 -44 -22z m1488 -428 l90 -270 -839 0 c-461 0 -839 1
-839 3 0 3 166 503 175 525 3 9 145 12 664 12 l659 0 90 -270z m-1328 -532
c132 -67 132 -249 0 -315 -56 -29 -104 -29 -160 0 -132 66 -132 248 0 315 24
12 60 22 80 22 20 0 56 -10 80 -22z m1320 0 c132 -67 132 -249 0 -315 -56 -29
-104 -29 -160 0 -132 66 -132 248 0 315 24 12 60 22 80 22 20 0 56 -10 80 -22z"/>
</g>
</svg>
